<svg width="800" height="400" xmlns="http://www.w3.org/2000/svg">
  <defs>
    <linearGradient id="bgGradient" x1="0%" y1="0%" x2="100%" y2="100%">
      <stop offset="0%" style="stop-color:#667eea;stop-opacity:1" />
      <stop offset="100%" style="stop-color:#764ba2;stop-opacity:1" />
    </linearGradient>
    <linearGradient id="logoGradient" x1="0%" y1="0%" x2="100%" y2="0%">
      <stop offset="0%" style="stop-color:#5a54f9;stop-opacity:1" />
      <stop offset="100%" style="stop-color:#b26cff;stop-opacity:1" />
    </linearGradient>
  </defs>
  
  <!-- Background -->
  <rect width="100%" height="100%" fill="url(#bgGradient)"/>
  
  <!-- Interface mockup -->
  <rect x="50" y="50" width="700" height="300" rx="10" fill="white" opacity="0.95"/>
  
  <!-- Header -->
  <rect x="70" y="70" width="660" height="40" rx="5" fill="#f8f9fa"/>
  <circle cx="90" cy="90" r="8" fill="url(#logoGradient)"/>
  <text x="110" y="95" font-family="Arial, sans-serif" font-size="16" font-weight="bold" fill="#2d3748">MyTekX - Générateur LaTeX IA</text>
  
  <!-- Content area -->
  <rect x="70" y="130" width="320" height="180" rx="5" fill="#f7fafc" stroke="#e2e8f0"/>
  <text x="90" y="150" font-family="Arial, sans-serif" font-size="12" fill="#4a5568">Document source</text>
  <rect x="90" y="160" width="280" height="100" rx="3" fill="white" stroke="#cbd5e0"/>
  <text x="110" y="180" font-family="Arial, sans-serif" font-size="10" fill="#718096">📄 document.pdf</text>
  <text x="110" y="200" font-family="Arial, sans-serif" font-size="10" fill="#718096">Équations détectées: 15</text>
  <text x="110" y="220" font-family="Arial, sans-serif" font-size="10" fill="#718096">Tableaux détectés: 3</text>
  
  <!-- Arrow -->
  <path d="M 410 220 L 430 220 M 425 215 L 430 220 L 425 225" stroke="url(#logoGradient)" stroke-width="3" fill="none"/>
  <text x="415" y="240" font-family="Arial, sans-serif" font-size="10" fill="url(#logoGradient)" font-weight="bold">IA</text>
  
  <!-- Output area -->
  <rect x="450" y="130" width="280" height="180" rx="5" fill="#f0fff4" stroke="#9ae6b4"/>
  <text x="470" y="150" font-family="Arial, sans-serif" font-size="12" fill="#276749">Code LaTeX généré</text>
  <rect x="470" y="160" width="240" height="100" rx="3" fill="white" stroke="#68d391"/>
  <text x="480" y="180" font-family="Courier, monospace" font-size="9" fill="#2d3748">\documentclass{article}</text>
  <text x="480" y="195" font-family="Courier, monospace" font-size="9" fill="#2d3748">\usepackage{amsmath}</text>
  <text x="480" y="210" font-family="Courier, monospace" font-size="9" fill="#2d3748">\begin{equation}</text>
  <text x="480" y="225" font-family="Courier, monospace" font-size="9" fill="#2d3748">  E = mc^2</text>
  <text x="480" y="240" font-family="Courier, monospace" font-size="9" fill="#2d3748">\end{equation}</text>
  
  <!-- Action buttons -->
  <rect x="470" y="280" width="80" height="25" rx="12" fill="url(#logoGradient)"/>
  <text x="485" y="295" font-family="Arial, sans-serif" font-size="11" fill="white" font-weight="bold">Télécharger</text>
  
  <rect x="570" y="280" width="60" height="25" rx="12" fill="white" stroke="url(#logoGradient)"/>
  <text x="585" y="295" font-family="Arial, sans-serif" font-size="11" fill="url(#logoGradient)" font-weight="bold">Aperçu</text>
  
  <!-- Logo at bottom */
  <text x="400" y="380" font-family="Arial, sans-serif" font-size="24" font-weight="bold" fill="white" text-anchor="middle">ΘΞ</text>
</svg> 